<svg id="wave" style="transform:rotate(180deg); transition: 0.3s" viewBox="0 0 1440 100" version="1.1" xmlns="http://www.w3.org/2000/svg"><defs><linearGradient id="sw-gradient-0" x1="0" x2="0" y1="1" y2="0"><stop stop-color="rgba(220, 244, 244, 1)" offset="0%"></stop><stop stop-color="rgba(220, 244, 244, 1)" offset="100%"></stop></linearGradient></defs><path style="transform:translate(0, 0px); opacity:1" fill="url(#sw-gradient-0)" d="M0,10L40,16.7C80,23,160,37,240,48.3C320,60,400,70,480,65C560,60,640,40,720,36.7C800,33,880,47,960,53.3C1040,60,1120,60,1200,50C1280,40,1360,20,1440,10C1520,0,1600,0,1680,11.7C1760,23,1840,47,1920,58.3C2000,70,2080,70,2160,61.7C2240,53,2320,37,2400,38.3C2480,40,2560,60,2640,56.7C2720,53,2800,27,2880,26.7C2960,27,3040,53,3120,53.3C3200,53,3280,27,3360,28.3C3440,30,3520,60,3600,71.7C3680,83,3760,77,3840,70C3920,63,4000,57,4080,46.7C4160,37,4240,23,4320,18.3C4400,13,4480,17,4560,15C4640,13,4720,7,4800,3.3C4880,0,4960,0,5040,15C5120,30,5200,60,5280,63.3C5360,67,5440,43,5520,30C5600,17,5680,13,5720,11.7L5760,10L5760,100L5720,100C5680,100,5600,100,5520,100C5440,100,5360,100,5280,100C5200,100,5120,100,5040,100C4960,100,4880,100,4800,100C4720,100,4640,100,4560,100C4480,100,4400,100,4320,100C4240,100,4160,100,4080,100C4000,100,3920,100,3840,100C3760,100,3680,100,3600,100C3520,100,3440,100,3360,100C3280,100,3200,100,3120,100C3040,100,2960,100,2880,100C2800,100,2720,100,2640,100C2560,100,2480,100,2400,100C2320,100,2240,100,2160,100C2080,100,2000,100,1920,100C1840,100,1760,100,1680,100C1600,100,1520,100,1440,100C1360,100,1280,100,1200,100C1120,100,1040,100,960,100C880,100,800,100,720,100C640,100,560,100,480,100C400,100,320,100,240,100C160,100,80,100,40,100L0,100Z"></path></svg>